<svg width="41" height="40" viewBox="0 0 41 40" fill="none" xmlns="http://www.w3.org/2000/svg">
<path fill-rule="evenodd" clip-rule="evenodd" d="M20.8333 0C9.80536 0 0.833313 8.97204 0.833313 20C0.833313 31.0271 9.80536 40 20.8333 40C31.8605 40 40.8333 31.0271 40.8333 20C40.8333 8.97204 31.8621 0 20.8333 0ZM25.8071 20.7038H22.5533C22.5533 25.9023 22.5533 32.3012 22.5533 32.3012H17.7317C17.7317 32.3012 17.7317 25.9644 17.7317 20.7038H15.4398V16.6048H17.7317V13.9536C17.7317 12.0548 18.634 9.08774 22.5976 9.08774L26.1705 9.10143V13.0803C26.1705 13.0803 23.9993 13.0803 23.5772 13.0803C23.1551 13.0803 22.5549 13.2914 22.5549 14.1969V16.6056H26.2285L25.8071 20.7038Z" fill="#F3F2F2"/>
</svg>
