<svg width="40" height="40" viewBox="0 0 40 40" fill="none" xmlns="http://www.w3.org/2000/svg">
<path fill-rule="evenodd" clip-rule="evenodd" d="M19.86 23.8368C22.0512 23.8368 23.8376 22.0536 23.8376 19.8608C23.8376 18.9952 23.5544 18.196 23.0856 17.5432C22.3632 16.5416 21.1888 15.8848 19.8624 15.8848C18.5352 15.8848 17.3616 16.5408 16.6376 17.5424C16.1672 18.1952 15.8864 18.9944 15.8856 19.86C15.8832 22.0528 17.668 23.8368 19.86 23.8368Z" fill="#F3F2F2"/>
<path fill-rule="evenodd" clip-rule="evenodd" d="M28.5424 14.9968V11.664V11.168L28.044 11.1696L24.7128 11.18L24.7256 15.0096L28.5424 14.9968Z" fill="#F3F2F2"/>
<path fill-rule="evenodd" clip-rule="evenodd" d="M19.8608 0C8.9096 0 0 8.9096 0 19.8608C0 30.8112 8.9096 39.7216 19.8608 39.7216C30.8112 39.7216 39.7216 30.8112 39.7216 19.8608C39.7216 8.9096 30.8128 0 19.8608 0ZM31.156 17.5435V26.7915C31.156 29.2003 29.1976 31.1579 26.7904 31.1579H12.9312C10.5232 31.1579 8.5656 29.2003 8.5656 26.7915V17.5435V12.9323C8.5656 10.5243 10.5232 8.5667 12.9312 8.5667H26.7896C29.1976 8.5667 31.156 10.5243 31.156 12.9323V17.5435Z" fill="#F3F2F2"/>
<path fill-rule="evenodd" clip-rule="evenodd" d="M26.0392 19.8606C26.0392 23.2662 23.268 26.039 19.8608 26.039C16.4536 26.039 13.6832 23.2662 13.6832 19.8606C13.6832 19.0414 13.8464 18.2582 14.1376 17.543H10.7656V26.791C10.7656 27.9862 11.736 28.9542 12.9304 28.9542H26.7888C27.9816 28.9542 28.9536 27.9862 28.9536 26.791V17.543H25.58C25.8736 18.2582 26.0392 19.0414 26.0392 19.8606Z" fill="#F3F2F2"/>
</svg>
