<svg width="49" height="39" viewBox="0 0 49 39" fill="none" xmlns="http://www.w3.org/2000/svg">
<path d="M18.9087 4.14285C27.2658 4.14285 34.3373 8.85714 34.3373 14.4286C34.3373 20 27.2658 24.7143 18.9087 24.7143C17.5158 24.7143 16.1498 24.5804 14.8105 24.3393L13.3908 24.0714L12.2123 24.9018C11.6765 25.2768 11.114 25.625 10.5515 25.9464L11.489 23.6964L8.89083 22.1964C5.46225 20.2143 3.48011 17.375 3.48011 14.4286C3.48011 8.85714 10.5515 4.14285 18.9087 4.14285ZM18.9087 0.714285C8.48904 0.714285 0.0515404 6.84821 0.0515404 14.4286C0.0515404 18.7679 2.83725 22.6518 7.17654 25.1696C6.26583 27.3929 5.08725 28.4375 4.04261 29.6161C3.74797 29.9643 3.39975 30.2857 3.5069 30.7946C3.58725 31.25 3.96225 31.5714 4.36404 31.5714C4.39083 31.5714 4.41761 31.5714 4.4444 31.5714C5.24797 31.4643 6.02475 31.3304 6.74797 31.1429C9.45333 30.4464 11.9712 29.2946 14.1944 27.7143C15.6944 27.9821 17.2748 28.1429 18.9087 28.1429C29.3283 28.1429 37.7658 22.0089 37.7658 14.4286C37.7658 6.84821 29.3283 0.714285 18.9087 0.714285ZM40.9265 32.0268C45.2658 29.5089 48.0515 25.6518 48.0515 21.2857C48.0515 16.8125 45.1051 12.8482 40.5783 10.3571C40.9801 11.6696 41.1944 13.0357 41.1944 14.4286C41.1944 19.2232 38.7301 23.6429 34.2569 26.9107C30.1051 29.9107 24.6676 31.5714 18.9087 31.5714C18.1319 31.5714 17.3283 31.5179 16.5515 31.4643C19.8998 33.6607 24.3462 35 29.1944 35C30.8283 35 32.4087 34.8393 33.9087 34.5714C36.1319 36.1518 38.6498 37.3036 41.3551 38C42.0783 38.1875 42.8551 38.3214 43.6587 38.4286C44.0873 38.4821 44.489 38.1339 44.5962 37.6518C44.7033 37.1429 44.3551 36.8214 44.0605 36.4732C43.0158 35.2946 41.8373 34.25 40.9265 32.0268Z" fill="#D58071"/>
</svg>
