<svg width="56" height="49" viewBox="0 0 56 49" fill="none" xmlns="http://www.w3.org/2000/svg">
<path d="M54.7368 1.15178C54.2547 0.830355 53.6654 0.776785 53.1297 0.99107L36.6297 7.58035L20.1297 0.99107C19.7011 0.80357 19.2725 0.80357 18.844 0.99107L1.70109 7.84821C1.05824 8.08928 0.629665 8.73214 0.629665 9.42857V47.1429C0.629665 47.7054 0.924308 48.2411 1.37967 48.5625C1.67431 48.75 1.99574 48.8571 2.34395 48.8571C2.55824 48.8571 2.77252 48.8304 2.98681 48.7232L19.4868 42.1339L35.9868 48.7232C36.4154 48.9107 36.844 48.9107 37.2725 48.7232L54.4154 41.8661C55.0582 41.625 55.4868 40.9821 55.4868 40.2857V2.57143C55.4868 2.00893 55.1922 1.47321 54.7368 1.15178ZM20.344 4.76785L35.7725 10.9286V44.9464L20.344 38.7857V4.76785ZM4.05824 10.5804L18.6297 4.76785V38.7857L4.05824 44.5982V10.5804ZM52.0582 39.1339L37.4868 44.9464V10.9286L52.0582 5.11607V39.1339Z" fill="#D58071"/>
</svg>
