<svg width="53" height="35" viewBox="0 0 53 35" fill="none" xmlns="http://www.w3.org/2000/svg">
<path d="M21.4126 24.7143V22.1429H24.8411V14.4286H24.7876C24.359 15.0982 23.9572 15.3929 23.3144 15.9554L21.2519 13.8125L25.2161 10.1429H28.2697V22.1429H31.6983V24.7143H21.4126ZM35.1269 17.8571C35.1269 12.9821 32.1804 6.71428 26.5554 6.71428C20.9304 6.71428 17.984 12.9821 17.984 17.8571C17.984 22.7321 20.9304 29 26.5554 29C32.1804 29 35.1269 22.7321 35.1269 17.8571ZM48.8411 24.7143C45.0644 24.7143 41.984 27.7946 41.984 31.5714H11.1269C11.1269 27.7946 8.04651 24.7143 4.26972 24.7143V11C8.04651 11 11.1269 7.91964 11.1269 4.14285H41.984C41.984 7.91964 45.0644 11 48.8411 11V24.7143ZM52.2697 2.42857C52.2697 1.49107 51.4929 0.714285 50.5554 0.714285H2.55543C1.61793 0.714285 0.841148 1.49107 0.841148 2.42857V33.2857C0.841148 34.2232 1.61793 35 2.55543 35H50.5554C51.4929 35 52.2697 34.2232 52.2697 33.2857V2.42857Z" fill="#D58071"/>
</svg>
