<svg width="53" height="49" viewBox="0 0 53 49" fill="none" xmlns="http://www.w3.org/2000/svg">
<path d="M26.344 0.85714L0.629665 11.1429V14.5714H4.05824C4.05824 15.5089 4.88859 16.2857 5.90645 16.2857H46.7815C47.7993 16.2857 48.6297 15.5089 48.6297 14.5714H52.0582V11.1429L26.344 0.85714ZM7.48681 18V38.5714H5.90645C4.88859 38.5714 4.05824 39.3482 4.05824 40.2857V42H48.6297V40.2857C48.6297 39.3482 47.7993 38.5714 46.7815 38.5714H45.2011V18H38.344V38.5714H34.9154V18H28.0582V38.5714H24.6297V18H17.7725V38.5714H14.344V18H7.48681ZM50.21 43.7143H2.47788C1.46002 43.7143 0.629665 44.4911 0.629665 45.4286V48.8571H52.0582V45.4286C52.0582 44.4911 51.2279 43.7143 50.21 43.7143Z" fill="#D58071"/>
</svg>
