<svg width="42" height="49" viewBox="0 0 42 49" fill="none" xmlns="http://www.w3.org/2000/svg">
<path d="M32.6431 21.8571C33.9823 19.7411 34.7591 17.25 34.7591 14.5714C34.7591 7.01785 28.5984 0.85714 21.0448 0.85714C13.4913 0.85714 7.33056 7.01785 7.33056 14.5714C7.33056 17.25 8.10734 19.7411 9.44663 21.8571C5.66984 22.9554 0.473415 26.6786 0.473415 38.8661C0.473415 44.3839 4.57163 48.8571 9.60734 48.8571H32.4823C37.5181 48.8571 41.6163 44.3839 41.6163 38.8661C41.6163 26.6786 36.4198 22.9554 32.6431 21.8571ZM21.0448 4.28571C26.7234 4.28571 31.3306 8.89285 31.3306 14.5714C31.3306 20.25 26.7234 24.8571 21.0448 24.8571C15.3663 24.8571 10.7591 20.25 10.7591 14.5714C10.7591 8.89285 15.3663 4.28571 21.0448 4.28571ZM32.4823 45.4286H9.60734C6.47342 45.4286 3.90199 42.5089 3.90199 38.8661C3.90199 30.4286 6.74127 25.1518 12.0448 24.8839C14.4556 27 17.5895 28.2857 21.0448 28.2857C24.5002 28.2857 27.6341 27 30.0448 24.8839C35.3484 25.1518 38.1877 30.4286 38.1877 38.8661C38.1877 42.5089 35.6163 45.4286 32.4823 45.4286Z" fill="#D58071"/>
</svg>
