<svg width="43" height="42" viewBox="0 0 43 42" fill="none" xmlns="http://www.w3.org/2000/svg">
<path d="M24.974 11.4286C24.974 10.9464 24.599 10.5714 24.1168 10.5714H22.4025C21.9204 10.5714 21.5454 10.9464 21.5454 11.4286V20.8571H15.5454C15.0632 20.8571 14.6882 21.2321 14.6882 21.7143V23.4286C14.6882 23.9107 15.0632 24.2857 15.5454 24.2857H24.1168C24.599 24.2857 24.974 23.9107 24.974 23.4286V11.4286ZM36.1168 20.8571C36.1168 28.8929 29.5811 35.4286 21.5454 35.4286C13.5097 35.4286 6.97396 28.8929 6.97396 20.8571C6.97396 12.8214 13.5097 6.28571 21.5454 6.28571C29.5811 6.28571 36.1168 12.8214 36.1168 20.8571ZM42.1168 20.8571C42.1168 9.5 32.9025 0.285712 21.5454 0.285712C10.1882 0.285712 0.973961 9.5 0.973961 20.8571C0.973961 32.2143 10.1882 41.4286 21.5454 41.4286C32.9025 41.4286 42.1168 32.2143 42.1168 20.8571Z" fill="#D58071"/>
</svg>
