<svg width="40" height="40" viewBox="0 0 40 40" fill="none" xmlns="http://www.w3.org/2000/svg">
<path fill-rule="evenodd" clip-rule="evenodd" d="M16.3139 24.3214C19.3074 22.7691 22.2747 21.2312 25.2694 19.6781C22.2657 18.1108 19.2992 16.5638 16.3139 15.0059C16.3139 18.1218 16.3139 21.2059 16.3139 24.3214Z" fill="#F3F2F2"/>
<path fill-rule="evenodd" clip-rule="evenodd" d="M19.949 0C8.93184 0 0 8.93143 0 19.949C0 30.9665 8.93184 39.898 19.949 39.898C30.9661 39.898 39.898 30.9665 39.898 19.949C39.898 8.93143 30.9661 0 19.949 0ZM33.5412 26.6079C33.1959 28.1059 31.9706 29.2108 30.4959 29.3752C27.0033 29.7659 23.4686 29.7679 19.9482 29.7659C16.4278 29.7679 12.8923 29.7659 9.39878 29.3752C7.92409 29.2108 6.6996 28.1059 6.35511 26.6079C5.86409 24.474 5.86409 22.1454 5.86409 19.9491C5.86409 17.7528 5.8698 15.4234 6.36082 13.2903C6.70531 11.7924 7.9298 10.6871 9.4045 10.5222C12.898 10.132 16.4335 10.1299 19.9539 10.132C23.4735 10.1299 27.009 10.132 30.5012 10.5222C31.9767 10.6871 33.202 11.792 33.5465 13.2903C34.0376 15.4238 34.0335 17.7528 34.0335 19.9491C34.0335 22.1454 34.0323 24.4744 33.5412 26.6079Z" fill="#F3F2F2"/>
</svg>
